<svg width="24" height="24" viewBox="0 0 20 22" fill="none" xmlns="http://www.w3.org/2000/svg">
<path d="M11 0C6.40004 0 2.60004 3.4 2.10004 7.9L0.500041 10C4.06206e-05 10.8 -0.0999594 11.8 0.300041 12.6C0.700041 13.3 1.30004 13.8 2.00004 13.9V15C2.00004 16.8 3.30004 18.4 5.00004 18.9V22H16V16.5C18.5 14.8 20 12.1 20 9C20 4 16 0 11 0ZM14 15.3V20H7.00004V17H6.00004C4.90004 17 4.00004 16.1 4.00004 15V12H2.50004C2.10004 12 1.80004 11.5 2.10004 11.2L4.00004 8.7C4.20004 5 7.20004 2 11 2C14.9 2 18 5.1 18 9C18 11.8 16.4 14.2 14 15.3Z" fill="#555454"/>
</svg>
