<?xml version="1.0" encoding="UTF-8"?>
<svg id="Camada_2" data-name="Camada 2" xmlns="http://www.w3.org/2000/svg" viewBox="0 0 24 23.95">
  <defs>
    <style>
      .cls-1 {
        fill: #fff;
      }
    </style>
  </defs>
  <g id="Camada_8" data-name="Camada 8">
    <g>
      <path class="cls-2" d="M15.72,5.44v-1.08c.22-.1,.55-.27,.89-.55,.34-.29,.66-.55,.82-1.03,.19-.58,.03-1.12,0-1.21-.01-.03-.02-.06-.03-.08,.06,.05,.14,.13,.21,.24,.14,.2,.18,.4,.21,.63,.07,.48,.11,.76,.05,1.16-.06,.44-.19,.74-.37,1.13-.16,.36-.43,.87-.84,1.42l-.95-.63Z"/>
      <path class="cls-2" d="M17.9,7.38l.43-.99c.24,0,.61-.03,1.04-.16,.43-.13,.83-.25,1.15-.62,.4-.45,.47-1.02,.48-1.11,0-.03,0-.06,0-.08,.03,.07,.08,.17,.1,.3,.05,.24,0,.44-.06,.66-.13,.47-.2,.74-.41,1.08-.23,.38-.47,.6-.78,.89-.29,.27-.73,.63-1.33,.97l-.62-.95Z"/>
      <ellipse class="cls-2" cx="11.95" cy="11.97" rx="6.79" ry="6.79"/>
      <path class="cls-2" d="M16.75,6.13c.27,.26,.54,.53,.82,.79,.06-.09,.15-.25,.26-.45,.08-.14,.18-.32,.39-.71,.2-.37,.23-.43,.32-.53,.19-.23,.36-.32,.47-.37,.07-.03,.14-.04,.18-.05-.09-.03-.23-.06-.39-.03-.2,.04-.32,.16-.45,.26-.21,.18-.46,.33-.68,.5-.2,.15-.51,.36-.92,.58Z"/>
      <path class="cls-2" d="M18.61,8.39c.14,.35,.28,.7,.42,1.05,.09-.06,.24-.17,.42-.3,.13-.09,.3-.22,.65-.49,.34-.25,.39-.29,.5-.35,.27-.13,.46-.15,.58-.14,.08,0,.14,.02,.19,.03-.07-.06-.19-.15-.35-.18-.2-.04-.36,.01-.52,.06-.27,.08-.55,.11-.83,.18-.25,.06-.61,.13-1.08,.15Z"/>
      <path class="cls-2" d="M19.24,9.95l.76-.77c.23,.09,.58,.2,1.03,.23,.45,.04,.86,.07,1.3-.16,.54-.28,.81-.78,.85-.86,.02-.03,.03-.06,.04-.07,0,.08,0,.19-.02,.32-.04,.24-.16,.41-.29,.6-.29,.39-.46,.62-.77,.86-.35,.27-.65,.39-1.06,.55-.37,.14-.91,.32-1.6,.42l-.23-1.11Z"/>
      <path class="cls-2" d="M19.44,12.85l1-.41c.17,.17,.46,.41,.85,.62,.4,.21,.76,.4,1.26,.36,.6-.04,1.05-.4,1.12-.46,.03-.02,.05-.04,.06-.05-.02,.07-.07,.18-.14,.28-.14,.2-.31,.32-.5,.43-.42,.25-.66,.39-1.05,.49-.43,.11-.75,.1-1.19,.09-.4-.01-.96-.07-1.63-.24l.22-1.12Z"/>
      <path class="cls-2" d="M19.5,11.16c0,.38,.02,.76,.03,1.13,.11-.03,.28-.07,.5-.14,.15-.04,.36-.1,.78-.23,.4-.12,.46-.14,.59-.15,.3-.03,.48,.02,.6,.07,.07,.03,.13,.07,.17,.09-.05-.09-.13-.21-.26-.3-.17-.11-.34-.11-.5-.13-.28-.02-.56-.09-.84-.12-.25-.03-.62-.1-1.06-.23Z"/>
      <path class="cls-2" d="M19.24,14.07c-.15,.35-.29,.7-.44,1.05,.11,.02,.29,.05,.51,.08,.16,.02,.37,.05,.81,.11,.42,.05,.48,.06,.61,.1,.29,.09,.43,.22,.52,.31,.05,.06,.09,.11,.12,.15,0-.1-.03-.24-.12-.38-.11-.17-.26-.24-.41-.32-.25-.13-.47-.31-.72-.45-.22-.13-.52-.34-.88-.64Z"/>
      <path class="cls-2" d="M18.56,15.58h1.08c.1,.22,.27,.55,.55,.9,.29,.34,.55,.66,1.03,.82,.58,.19,1.12,.03,1.21,0,.03-.01,.06-.02,.08-.03-.05,.06-.13,.14-.24,.21-.2,.14-.4,.18-.63,.21-.48,.07-.76,.1-1.16,.05-.44-.06-.74-.19-1.13-.37-.36-.16-.87-.43-1.42-.84l.63-.95Z"/>
      <path class="cls-2" d="M16.68,17.83l.99,.43c0,.24,.03,.61,.15,1.04,.13,.43,.25,.83,.62,1.15,.45,.4,1.02,.47,1.11,.48,.03,0,.06,0,.08,0-.07,.03-.17,.08-.3,.1-.24,.05-.44,0-.66-.06-.47-.13-.74-.2-1.08-.41-.38-.23-.6-.47-.89-.79-.27-.29-.63-.73-.97-1.33l.95-.62Z"/>
      <path class="cls-2" d="M17.88,16.61c-.26,.27-.53,.54-.79,.81,.09,.06,.25,.15,.45,.26,.14,.08,.32,.18,.71,.4,.37,.2,.43,.23,.53,.32,.23,.19,.32,.36,.37,.47,.03,.07,.04,.14,.05,.18,.03-.09,.06-.23,.03-.39-.04-.2-.16-.32-.26-.45-.18-.22-.33-.46-.5-.68-.15-.2-.36-.51-.58-.92Z"/>
      <path class="cls-2" d="M15.61,18.54c-.35,.14-.7,.28-1.05,.42,.06,.09,.17,.24,.3,.42,.09,.13,.22,.3,.49,.65,.25,.34,.29,.39,.35,.5,.13,.27,.15,.46,.14,.58,0,.08-.02,.14-.03,.19,.06-.07,.15-.19,.19-.35,.04-.2-.01-.36-.06-.52-.08-.27-.11-.55-.18-.83-.06-.25-.12-.61-.15-1.08Z"/>
      <path class="cls-2" d="M14.05,19.17l.77,.76c-.09,.23-.2,.58-.23,1.03-.04,.45-.07,.86,.16,1.3,.28,.54,.78,.81,.86,.85,.03,.02,.06,.03,.07,.04-.08,0-.19,0-.32-.02-.24-.05-.41-.16-.6-.29-.39-.29-.62-.46-.86-.77-.27-.35-.39-.65-.55-1.06-.14-.37-.32-.91-.42-1.6l1.11-.23Z"/>
      <path class="cls-2" d="M11.15,19.39l.41,1c-.17,.17-.41,.45-.62,.85-.21,.4-.4,.76-.37,1.26,.04,.6,.4,1.05,.46,1.12,.02,.03,.04,.05,.05,.06-.07-.02-.18-.07-.28-.14-.2-.14-.32-.31-.43-.5-.25-.42-.39-.66-.49-1.05-.11-.43-.1-.75-.09-1.19,.01-.4,.07-.96,.24-1.63l1.12,.23Z"/>
      <path class="cls-2" d="M12.84,19.43c-.38,0-.76,.02-1.14,.03,.03,.11,.07,.28,.13,.5,.04,.15,.1,.36,.23,.78,.12,.4,.14,.46,.15,.59,.03,.3-.02,.48-.07,.6-.03,.07-.07,.13-.09,.17,.09-.05,.21-.13,.3-.26,.11-.17,.11-.34,.13-.5,.02-.28,.09-.56,.12-.84,.03-.25,.1-.62,.23-1.06Z"/>
      <path class="cls-2" d="M9.9,19.16c-.35-.15-.7-.29-1.05-.44-.02,.11-.05,.29-.08,.51-.02,.16-.05,.37-.11,.81-.05,.42-.06,.48-.1,.61-.09,.29-.22,.43-.31,.52-.06,.05-.11,.09-.15,.12,.1,0,.24-.03,.38-.12,.17-.11,.24-.26,.32-.41,.13-.25,.31-.47,.45-.72,.13-.22,.34-.52,.65-.87Z"/>
      <path class="cls-2" d="M8.24,18.46l.05,1.08c-.22,.11-.54,.29-.87,.59-.33,.3-.64,.58-.77,1.06-.16,.58,.02,1.12,.05,1.21,.01,.03,.02,.06,.03,.08-.06-.05-.14-.12-.22-.23-.15-.2-.2-.4-.24-.62-.09-.48-.14-.75-.1-1.15,.04-.44,.16-.74,.32-1.15,.15-.37,.39-.88,.78-1.46l.97,.59Z"/>
      <path class="cls-2" d="M7.16,17.8c-.28-.25-.57-.5-.85-.75-.05,.1-.14,.26-.24,.46-.07,.14-.17,.33-.36,.73-.19,.38-.21,.44-.29,.54-.18,.24-.34,.34-.46,.39-.07,.03-.14,.05-.18,.06,.09,.03,.24,.05,.4,0,.2-.05,.31-.17,.44-.28,.21-.19,.44-.35,.66-.53,.2-.16,.49-.38,.9-.62Z"/>
      <path class="cls-2" d="M6.09,16.53l-.38,1.01c-.24,.01-.61,.05-1.03,.2-.42,.15-.81,.28-1.13,.67-.38,.47-.43,1.04-.43,1.13,0,.03,0,.06,0,.08-.04-.07-.08-.17-.11-.3-.06-.24-.02-.44,.03-.66,.11-.48,.17-.75,.36-1.1,.21-.39,.44-.62,.75-.93,.28-.28,.71-.66,1.29-1.03l.66,.93Z"/>
      <path class="cls-2" d="M4.74,13.97l-.75,.77c-.23-.08-.58-.19-1.03-.23-.45-.03-.86-.06-1.3,.17-.54,.28-.8,.79-.84,.87-.02,.03-.03,.06-.04,.08,0-.08,0-.19,.01-.32,.04-.24,.15-.41,.29-.6,.29-.39,.45-.62,.77-.87,.35-.27,.65-.4,1.05-.56,.37-.15,.91-.33,1.59-.44l.24,1.11Z"/>
      <path class="cls-2" d="M5.37,15.52c-.16-.34-.32-.69-.48-1.03-.09,.07-.23,.18-.41,.32-.12,.1-.28,.24-.62,.52-.32,.27-.37,.31-.48,.38-.26,.15-.45,.17-.57,.18-.08,0-.14,0-.19-.02,.08,.06,.2,.14,.36,.17,.2,.03,.36-.03,.51-.09,.27-.09,.55-.14,.82-.22,.24-.07,.6-.16,1.07-.21Z"/>
      <path class="cls-2" d="M4.5,12.72c0-.38-.01-.76-.02-1.13-.11,.03-.28,.07-.5,.13-.15,.04-.36,.1-.78,.22-.4,.12-.47,.14-.6,.15-.3,.03-.48-.02-.6-.07-.07-.03-.13-.07-.17-.09,.04,.09,.12,.21,.26,.3,.17,.11,.34,.12,.5,.13,.28,.02,.56,.09,.84,.13,.25,.03,.62,.1,1.06,.24Z"/>
      <path class="cls-2" d="M4.54,11.04l-.98,.45c-.18-.16-.47-.39-.88-.58-.41-.19-.78-.37-1.27-.31-.6,.07-1.03,.44-1.1,.51-.03,.02-.05,.04-.06,.06,.02-.07,.06-.18,.13-.29,.13-.21,.29-.33,.49-.45,.41-.26,.65-.41,1.03-.53,.42-.13,.75-.13,1.18-.14,.4,0,.97,.03,1.64,.17l-.18,1.12Z"/>
      <path class="cls-2" d="M5.48,8.25l-1.08,.03c-.1-.22-.28-.54-.58-.88-.3-.34-.57-.65-1.05-.79-.58-.17-1.12,0-1.21,.03-.03,.01-.06,.02-.08,.03,.05-.06,.12-.14,.23-.22,.2-.14,.4-.19,.63-.23,.48-.08,.76-.13,1.16-.08,.44,.05,.74,.17,1.14,.34,.37,.15,.88,.4,1.44,.8l-.61,.96Z"/>
      <path class="cls-2" d="M4.82,9.74c.13-.36,.25-.71,.38-1.07-.11-.01-.29-.03-.52-.05-.16-.01-.37-.03-.81-.06-.42-.03-.48-.03-.61-.07-.29-.08-.44-.19-.53-.28-.06-.05-.1-.11-.12-.15,.01,.1,.04,.24,.14,.37,.12,.16,.28,.23,.43,.3,.26,.12,.49,.28,.74,.41,.22,.12,.54,.31,.91,.59Z"/>
      <path class="cls-2" d="M6.19,7.19c.26-.27,.52-.55,.78-.82-.1-.06-.25-.15-.45-.26-.14-.08-.32-.18-.71-.39-.37-.2-.43-.23-.53-.31-.24-.19-.33-.35-.37-.47-.03-.07-.05-.14-.05-.18-.03,.09-.06,.23-.02,.39,.04,.2,.16,.32,.27,.44,.19,.21,.33,.46,.51,.68,.16,.2,.37,.5,.59,.91Z"/>
      <path class="cls-2" d="M7.43,5.97l-1.01-.39c-.01-.24-.05-.61-.19-1.03-.15-.43-.28-.82-.66-1.13-.47-.38-1.04-.43-1.13-.44-.03,0-.06,0-.08,0,.07-.04,.17-.08,.3-.11,.24-.05,.44-.02,.67,.03,.48,.11,.75,.17,1.1,.37,.39,.21,.62,.44,.92,.75,.28,.28,.66,.71,1.02,1.3l-.93,.66Z"/>
      <path class="cls-2" d="M8.46,5.29c.35-.14,.7-.29,1.05-.43-.06-.09-.17-.24-.3-.42-.1-.13-.22-.3-.49-.65-.26-.33-.3-.38-.36-.5-.14-.27-.15-.46-.15-.58,0-.08,.01-.14,.03-.19-.06,.07-.15,.19-.18,.35-.04,.2,.01,.36,.06,.52,.08,.27,.12,.55,.18,.83,.06,.25,.13,.61,.16,1.08Z"/>
      <path class="cls-2" d="M9.96,4.71l-.72-.81c.1-.22,.24-.56,.3-1.01,.07-.44,.13-.85-.07-1.31-.24-.56-.72-.86-.8-.91-.03-.02-.05-.03-.07-.04,.08,0,.19,0,.31,.04,.24,.06,.4,.18,.58,.33,.37,.32,.58,.5,.81,.83,.25,.37,.35,.68,.47,1.09,.12,.38,.26,.93,.31,1.62l-1.13,.16Z"/>
      <path class="cls-2" d="M11.31,4.5c.38,0,.76,0,1.14,0-.02-.11-.06-.29-.12-.51-.04-.15-.09-.36-.2-.79-.11-.41-.12-.47-.13-.6-.02-.3,.04-.48,.09-.59,.03-.07,.07-.13,.1-.17-.09,.04-.21,.12-.3,.25-.12,.17-.13,.33-.14,.5-.03,.28-.11,.55-.15,.83-.04,.25-.12,.61-.27,1.05Z"/>
      <path class="cls-2" d="M12.93,4.54l-.45-.98c.16-.18,.39-.47,.59-.87,.19-.4,.37-.78,.32-1.27-.07-.6-.44-1.03-.5-1.1-.02-.03-.04-.05-.06-.06,.07,.02,.18,.06,.29,.13,.21,.13,.33,.29,.45,.49,.26,.41,.41,.65,.53,1.03,.13,.42,.13,.75,.13,1.18,0,.4-.03,.97-.18,1.64l-1.12-.18Z"/>
      <path class="cls-2" d="M14.19,4.77c.35,.14,.7,.28,1.05,.42,.02-.11,.05-.29,.08-.51,.02-.16,.05-.37,.1-.81,.05-.42,.06-.48,.09-.61,.09-.29,.21-.43,.3-.52,.06-.05,.11-.09,.15-.12-.1,0-.24,.03-.38,.12-.17,.11-.24,.26-.32,.41-.13,.25-.3,.48-.45,.72-.13,.22-.33,.53-.64,.88Z"/>
      <g>
        <g>
          <path d="M6.94,9.42c.08,.02,.21,.05,.32,.16,0,0,.11,.11,.16,.29,.07,.27,.08,1.59,.03,3.39,.2-.1,.45-.19,.74-.26,.57-.14,1.07-.14,1.42-.11v-3.68c-.2-.02-.45-.04-.74,0-.47,.06-.83,.22-1.05,.34"/>
          <path class="cls-1" d="M6.94,9.42c.78,.15,.53,1.21,.61,1.8,.02,.68,.02,1.37,0,2.05l-.16-.11c.7-.29,1.45-.49,2.22-.39,0,0-.13,.12-.13,.12,0-1.23,.02-2.46,.05-3.68,0,0,.06,.07,.06,.07-.3,.01-.6-.05-.91,0-.3,.05-.6,.14-.87,.28,.26-.16,.56-.28,.86-.35,.32-.07,.66-.04,1-.06,.03,1.25,.05,2.5,.05,3.75,0,0,0,.13,0,.13-.83-.12-1.63,.1-2.4,.39,0,0,0-.16,0-.16l.07-2.04c-.05-.51,.25-1.67-.46-1.8h0Z"/>
        </g>
        <g>
          <path d="M10.89,8.95l.1,.07c.13,.09,.28,.14,.44,.14h.92c.24,0,.48-.02,.71-.06h.07c.14-.04,.28-.07,.42-.1l.51-.13,.8-.21"/>
          <path class="cls-1" d="M10.89,8.95c.29,.22,.62,.13,.97,.11,1.03,.02,1.99-.27,3.01-.4-1.11,.49-2.32,.74-3.52,.56-.18-.04-.34-.15-.45-.27h0Z"/>
        </g>
        <g>
          <path d="M12.69,7.05c.1,.06,.24,.17,.32,.34,.04,.1,.05,.18,.05,.24,.01,.27-.03,1.5-.11,3.16"/>
          <path class="cls-1" d="M12.69,7.04c.33,.11,.49,.51,.46,.83,0,.94-.03,1.99-.2,2.91-.1-.94-.06-1.96,0-2.9,.07-.33,0-.62-.26-.84h0Z"/>
        </g>
        <g>
          <path d="M14.55,9.82c.07,.1,.14,.24,.14,.42,0,.1-.03,.18-.05,.23-.07,.18-.54,1.14-1,2.07"/>
          <path class="cls-1" d="M14.55,9.82c.21,.18,.26,.49,.16,.74-.29,.69-.62,1.37-1.07,1.98,.2-.73,.52-1.4,.88-2.05,.11-.2,.14-.43,.03-.67h0Z"/>
        </g>
        <g>
          <path d="M11.91,12.85s0-.02,0-.03c.02-.54,.04-1.6-.04-2-.02-.12-.06-.23-.13-.34-.12-.18-.27-.27-.37-.32"/>
          <path class="cls-1" d="M11.91,12.85c-.27-.89,.23-2.04-.54-2.7,.99,.32,.67,1.91,.54,2.7h0Z"/>
        </g>
        <g>
          <path d="M15.42,10.79c-.23,.05-.42,.08-.55,.11-.39,.07-.48,.07-1.24,.18-.13,.02-.27,.04-.53,.08-.43,.06-.51,.07-.55,.08-.15,.02-.19,.02-.68,.05-.62,.04-.77,.06-.97-.03-.11-.04-.19-.09-.24-.13"/>
          <path class="cls-1" d="M15.42,10.79c-.67,.24-1.67,.38-2.37,.5-.75,.03-1.75,.34-2.39-.16,.36,.23,.76,.1,1.16,.07,1.2-.13,2.39-.35,3.6-.41h0Z"/>
        </g>
        <g>
          <path d="M10.39,13.39c.73-.25,1.64-.51,2.71-.66,1.02-.15,1.94-.16,2.68-.13"/>
          <path class="cls-1" d="M10.39,13.39c1.67-.77,3.58-1.03,5.4-.79-1.83,.08-3.61,.36-5.4,.79h0Z"/>
        </g>
        <g>
          <path d="M13.39,13.1c-.02,.69-.03,1.38-.05,2.07,0,.06,0,.12,.03,.18,.06,.17,.15,.28,.21,.35,.04,.05,.18,.19,.53,.32,.17,.06,.34,.1,1.32,.13,.26,0,.38,.01,.53,0,.55-.04,.72-.17,.79-.24,0,0,0,0,0,0,.09-.09,.14-.21,.15-.34,0-.03,0-.06,0-.1,0,0,0-.02,0-.03v-.8"/>
          <path class="cls-1" d="M13.39,13.1c.2,1.06-.46,2.75,1.07,2.87,.59,.06,1.21,.1,1.79,.05,.29-.03,.57-.16,.58-.46l.06-.91s.05,.91,.05,.91c-.14,1.03-1.79,.63-2.51,.65-1.73-.16-1.09-1.94-1.04-3.12h0Z"/>
        </g>
        <g>
          <path d="M11.84,13.44s.07,.11,.08,.18c0,0,.01,.1-.03,.21-.06,.16-.9,1.16-2.11,2.5"/>
          <path class="cls-1" d="M11.84,13.44c.09,.12,.17,.29,.09,.47-.57,.92-1.32,1.72-2.14,2.42,.49-.75,1.14-1.48,1.73-2.15,.19-.23,.49-.43,.32-.74h0Z"/>
        </g>
        <g>
          <path d="M7.93,11.29c.53-.27,1.13-.38,1.72-.33"/>
          <path class="cls-1" d="M7.93,11.29c.44-.43,1.15-.54,1.72-.33-.6,.11-1.11,.24-1.72,.33h0Z"/>
        </g>
      </g>
    </g>
  </g>
</svg>